<svg width="252" height="64" viewBox="0 0 252 64" fill="none" xmlns="http://www.w3.org/2000/svg">
<path d="M94.1562 34.3047C94.0234 35.4844 93.6211 36.5312 92.9492 37.4453C92.2773 38.3516 91.4023 39.0508 90.3242 39.543C89.2461 40.0273 88.082 40.2578 86.832 40.2344C85.707 40.2109 84.7266 39.9531 83.8906 39.4609C83.0547 38.9609 82.3945 38.2422 81.9102 37.3047C81.4336 36.3594 81.1641 35.2734 81.1016 34.0469C81.0469 33.0859 81.1445 31.8906 81.3945 30.4609C81.6523 29.0312 82.1055 27.7617 82.7539 26.6523C83.4102 25.543 84.1875 24.6641 85.0859 24.0156C86.3516 23.1094 87.7969 22.6719 89.4219 22.7031C91.1875 22.7344 92.5859 23.2812 93.6172 24.3438C94.6562 25.3984 95.2266 26.8672 95.3281 28.75L91.9062 28.7383C91.9062 27.6602 91.6914 26.8711 91.2617 26.3711C90.832 25.8711 90.1641 25.6055 89.2578 25.5742C88.0859 25.5352 87.1211 25.9531 86.3633 26.8281C85.6133 27.7031 85.1094 28.9805 84.8516 30.6602C84.6016 32.293 84.4922 33.5156 84.5234 34.3281C84.5625 35.3594 84.793 36.1211 85.2148 36.6133C85.6367 37.0977 86.2266 37.3516 86.9844 37.375C88.0312 37.4141 88.8672 37.168 89.4922 36.6367C90.125 36.0977 90.543 35.3281 90.7461 34.3281L94.1562 34.3047ZM105.041 27.0859C106.158 27.1016 107.119 27.3906 107.923 27.9531C108.736 28.5078 109.33 29.2773 109.705 30.2617C110.087 31.2383 110.224 32.3242 110.115 33.5195C109.935 35.5352 109.232 37.168 108.005 38.418C106.787 39.6602 105.279 40.2656 103.482 40.2344C102.38 40.2188 101.427 39.9375 100.623 39.3906C99.818 38.8359 99.2242 38.0703 98.8414 37.0938C98.4586 36.1172 98.3219 35.0391 98.4312 33.8594C98.6344 31.7656 99.3453 30.1016 100.564 28.8672C101.783 27.6328 103.275 27.0391 105.041 27.0859ZM101.701 35.0664C101.716 35.8164 101.892 36.4102 102.228 36.8477C102.564 37.2773 103.037 37.5 103.646 37.5156C104.662 37.5469 105.459 37.082 106.037 36.1211C106.615 35.1523 106.884 33.8828 106.845 32.3125C106.814 31.5625 106.63 30.9648 106.295 30.5195C105.966 30.0664 105.494 29.832 104.877 29.8164C103.892 29.7852 103.103 30.25 102.509 31.2109C101.923 32.1641 101.654 33.4492 101.701 35.0664ZM116.968 40H113.64L116.769 22H120.085L116.968 40ZM129.434 27.0859C130.552 27.1016 131.513 27.3906 132.317 27.9531C133.13 28.5078 133.723 29.2773 134.098 30.2617C134.481 31.2383 134.618 32.3242 134.509 33.5195C134.329 35.5352 133.626 37.168 132.399 38.418C131.18 39.6602 129.673 40.2656 127.876 40.2344C126.774 40.2188 125.821 39.9375 125.016 39.3906C124.212 38.8359 123.618 38.0703 123.235 37.0938C122.852 36.1172 122.716 35.0391 122.825 33.8594C123.028 31.7656 123.739 30.1016 124.958 28.8672C126.177 27.6328 127.669 27.0391 129.434 27.0859ZM126.095 35.0664C126.11 35.8164 126.286 36.4102 126.622 36.8477C126.958 37.2773 127.43 37.5 128.04 37.5156C129.055 37.5469 129.852 37.082 130.43 36.1211C131.009 35.1523 131.278 33.8828 131.239 32.3125C131.208 31.5625 131.024 30.9648 130.688 30.5195C130.36 30.0664 129.888 29.832 129.27 29.8164C128.286 29.7852 127.497 30.25 126.903 31.2109C126.317 32.1641 126.048 33.4492 126.095 35.0664ZM146.553 30.4961C146.1 30.418 145.729 30.3789 145.44 30.3789C144.26 30.3477 143.327 30.7891 142.639 31.7031L141.174 40H137.87L140.073 27.3203L143.178 27.3086L142.873 28.8555C143.67 27.6602 144.655 27.0625 145.827 27.0625C146.155 27.0625 146.537 27.1172 146.975 27.2266L146.553 30.4961Z" fill="#FF7675"/>
<path d="M156.242 36.4258C156.367 35.8008 155.934 35.3477 154.941 35.0664L153.875 34.7969C151.352 34.1016 150.125 32.875 150.195 31.1172C150.234 29.9219 150.762 28.9492 151.777 28.1992C152.801 27.4414 154.031 27.0703 155.469 27.0859C156.898 27.1016 158.055 27.4805 158.938 28.2227C159.82 28.9648 160.27 29.9531 160.285 31.1875L157.004 31.1758C157.02 30.0898 156.48 29.5391 155.387 29.5234C154.871 29.5234 154.422 29.6523 154.039 29.9102C153.664 30.168 153.434 30.5156 153.348 30.9531C153.23 31.5781 153.703 32.0195 154.766 32.2773L155.234 32.3828C156.312 32.6406 157.137 32.9375 157.707 33.2734C158.277 33.6016 158.715 34.0117 159.02 34.5039C159.332 34.9961 159.477 35.5859 159.453 36.2734C159.43 37.0781 159.168 37.7812 158.668 38.3828C158.176 38.9844 157.496 39.4492 156.629 39.7773C155.77 40.1055 154.863 40.2578 153.91 40.2344C152.504 40.2188 151.332 39.8164 150.395 39.0273C149.457 38.2305 148.98 37.2031 148.965 35.9453L152.082 35.9688C152.113 37.1797 152.762 37.793 154.027 37.8086C154.637 37.8086 155.137 37.6836 155.527 37.4336C155.926 37.1836 156.164 36.8477 156.242 36.4258Z" fill="#00CEC9"/>
<path d="M176.417 33.9883L175.363 40H171.929L174.894 22.9375L180.87 22.9492C182.714 22.9492 184.163 23.4609 185.218 24.4844C186.273 25.5078 186.734 26.8438 186.601 28.4922C186.476 30.1641 185.777 31.5 184.503 32.5C183.238 33.5 181.62 34 179.652 34L176.417 33.9883ZM176.898 31.1406L179.757 31.1641C180.679 31.1641 181.445 30.9258 182.054 30.4492C182.663 29.9727 183.027 29.3281 183.144 28.5156C183.261 27.7031 183.128 27.0547 182.745 26.5703C182.37 26.0859 181.812 25.8281 181.07 25.7969L177.835 25.7852L176.898 31.1406ZM192.751 40H189.423L191.626 27.3203H194.954L192.751 40ZM192.012 24.0977C191.997 23.5742 192.169 23.1406 192.528 22.7969C192.887 22.4531 193.321 22.2812 193.829 22.2812C194.329 22.2656 194.762 22.418 195.13 22.7383C195.497 23.0586 195.688 23.4727 195.704 23.9805C195.72 24.4648 195.555 24.8867 195.212 25.2461C194.876 25.6055 194.434 25.793 193.887 25.8086C193.395 25.8242 192.962 25.6758 192.587 25.3633C192.22 25.0508 192.028 24.6289 192.012 24.0977ZM203.518 37.5156C204.127 37.5312 204.635 37.3672 205.041 37.0234C205.448 36.6719 205.713 36.207 205.838 35.6289L208.944 35.6172C208.889 36.5078 208.608 37.3086 208.1 38.0195C207.6 38.7305 206.928 39.2852 206.084 39.6836C205.248 40.082 204.366 40.2695 203.436 40.2461C201.897 40.2227 200.678 39.6914 199.78 38.6523C198.881 37.6133 198.448 36.2305 198.479 34.5039L198.514 33.8594L198.526 33.7305C198.737 31.668 199.432 30.0352 200.612 28.832C201.791 27.6211 203.248 27.0391 204.983 27.0859C206.412 27.1172 207.545 27.5859 208.381 28.4922C209.225 29.3906 209.639 30.5781 209.623 32.0547H206.541C206.541 31.375 206.393 30.8398 206.096 30.4492C205.799 30.0586 205.354 29.8477 204.76 29.8164C203.182 29.7695 202.225 30.9219 201.889 33.2734C201.772 34.125 201.729 34.8438 201.76 35.4297C201.838 36.7969 202.424 37.4922 203.518 37.5156ZM218.105 34.9492L216.57 36.2852L215.926 40H212.621L215.738 22H219.055L217.344 31.7734L217.988 31.082L221.75 27.3203H225.992L220.449 32.7695L223.977 40H220.355L218.105 34.9492Z" fill="#FDCB6E"/>
<path d="M233.607 40.2344C232.498 40.2266 231.513 39.957 230.654 39.4258C229.802 38.8867 229.166 38.1523 228.744 37.2227C228.322 36.2852 228.158 35.2539 228.252 34.1289L228.287 33.6602C228.404 32.4258 228.763 31.293 229.365 30.2617C229.966 29.2305 230.74 28.4375 231.685 27.8828C232.63 27.3203 233.677 27.0547 234.826 27.0859C236.459 27.1172 237.693 27.7188 238.529 28.8906C239.373 30.0547 239.693 31.5312 239.49 33.3203L239.302 34.7617H231.533C231.502 35.582 231.701 36.2383 232.13 36.7305C232.56 37.2227 233.146 37.4766 233.888 37.4922C235.091 37.5234 236.146 37.0586 237.052 36.0977L238.564 37.9727C238.087 38.6914 237.4 39.2539 236.502 39.6602C235.603 40.0586 234.638 40.25 233.607 40.2344ZM234.662 29.8164C234.052 29.8008 233.509 29.9922 233.033 30.3906C232.564 30.7891 232.142 31.4805 231.767 32.4648H236.314L236.384 32.1602C236.431 31.8477 236.435 31.5508 236.396 31.2695C236.318 30.8164 236.127 30.4648 235.822 30.2148C235.517 29.957 235.13 29.8242 234.662 29.8164ZM251.37 30.4961C250.917 30.418 250.546 30.3789 250.257 30.3789C249.077 30.3477 248.144 30.7891 247.456 31.7031L245.991 40H242.687L244.89 27.3203L247.995 27.3086L247.691 28.8555C248.488 27.6602 249.472 27.0625 250.644 27.0625C250.972 27.0625 251.355 27.1172 251.792 27.2266L251.37 30.4961Z" fill="#00B894"/>
<rect width="64" height="64" fill="white"/>
<rect width="32" height="32" fill="#FDCB6E"/>
<rect x="32" width="32" height="32" fill="#00CEC9"/>
<rect x="32" y="32" width="32" height="32" fill="#00B894"/>
<rect y="32" width="32" height="32" fill="#FF7675"/>
</svg>
